<svg width="897" height="249" viewBox="0 0 897 249" fill="none" xmlns="http://www.w3.org/2000/svg">
<circle cx="90" cy="124.5" r="90" fill="#DDDDDD"/>
<path d="M57.7142 72.2142L57.7142 181.895" stroke="#FDFCFC" stroke-width="17"/>
<line x1="58.1196" y1="89.3235" x2="135.262" y2="145.038" stroke="#FDFCFC" stroke-width="17"/>
<line x1="133.642" y1="98.7041" x2="134.432" y2="180.99" stroke="#FDFCFC" stroke-width="17"/>
<path d="M49.5714 72.2142L49.5714 181.895" stroke="#131212" stroke-width="17"/>
<line x1="49.9767" y1="89.3235" x2="127.12" y2="145.038" stroke="#131212" stroke-width="17"/>
<line x1="125.5" y1="98.7041" x2="126.289" y2="180.99" stroke="#131212" stroke-width="17"/>
<path d="M287.304 168H275.784V125.376H228.936V168H217.416V76.608H228.936V115.264H275.784V76.608H287.304V168ZM300.003 99.392H312.035L326.883 138.432C327.736 140.736 328.504 142.955 329.187 145.088C329.955 147.221 330.638 149.312 331.235 151.36C331.832 153.323 332.302 155.243 332.643 157.12H333.155C333.667 154.987 334.478 152.213 335.587 148.8C336.696 145.301 337.848 141.803 339.043 138.304L352.995 99.392H365.155L335.587 177.472C333.966 181.739 332.046 185.451 329.827 188.608C327.694 191.851 325.048 194.325 321.891 196.032C318.819 197.824 315.064 198.72 310.627 198.72C308.579 198.72 306.787 198.592 305.251 198.336C303.715 198.165 302.392 197.952 301.283 197.696V188.736C302.222 188.907 303.331 189.077 304.611 189.248C305.976 189.419 307.384 189.504 308.835 189.504C311.48 189.504 313.742 188.992 315.619 187.968C317.582 187.029 319.246 185.621 320.611 183.744C321.976 181.952 323.128 179.819 324.067 177.344L327.651 168.256L300.003 99.392ZM408.645 98.112C417.093 98.112 423.877 101.056 428.997 106.944C434.202 112.832 436.805 121.707 436.805 133.568C436.805 141.333 435.61 147.904 433.221 153.28C430.917 158.571 427.632 162.581 423.365 165.312C419.184 167.957 414.234 169.28 408.517 169.28C405.018 169.28 401.904 168.811 399.173 167.872C396.442 166.933 394.096 165.739 392.133 164.288C390.256 162.752 388.634 161.088 387.269 159.296H386.501C386.672 160.747 386.842 162.581 387.013 164.8C387.184 167.019 387.269 168.939 387.269 170.56V198.72H376.005V99.392H385.221L386.757 108.736H387.269C388.634 106.773 390.256 104.981 392.133 103.36C394.096 101.739 396.4 100.459 399.045 99.52C401.776 98.5813 404.976 98.112 408.645 98.112ZM406.597 107.584C401.989 107.584 398.277 108.48 395.461 110.272C392.645 111.979 390.597 114.581 389.317 118.08C388.037 121.579 387.354 126.016 387.269 131.392V133.568C387.269 139.2 387.866 143.979 389.061 147.904C390.256 151.829 392.261 154.816 395.077 156.864C397.978 158.912 401.904 159.936 406.853 159.936C411.034 159.936 414.448 158.784 417.093 156.48C419.824 154.176 421.829 151.061 423.109 147.136C424.474 143.125 425.157 138.56 425.157 133.44C425.157 125.589 423.621 119.317 420.549 114.624C417.562 109.931 412.912 107.584 406.597 107.584ZM481.251 98.112C487.139 98.112 492.174 99.392 496.355 101.952C500.622 104.512 503.864 108.139 506.083 112.832C508.387 117.44 509.539 122.859 509.539 129.088V135.872H462.563C462.734 143.637 464.696 149.568 468.451 153.664C472.291 157.675 477.624 159.68 484.451 159.68C488.803 159.68 492.643 159.296 495.971 158.528C499.384 157.675 502.883 156.48 506.467 154.944V164.8C502.968 166.336 499.512 167.445 496.099 168.128C492.686 168.896 488.632 169.28 483.939 169.28C477.454 169.28 471.694 167.957 466.659 165.312C461.71 162.667 457.827 158.741 455.011 153.536C452.28 148.245 450.915 141.803 450.915 134.208C450.915 126.699 452.152 120.256 454.627 114.88C457.187 109.504 460.728 105.365 465.251 102.464C469.859 99.5627 475.192 98.112 481.251 98.112ZM481.123 107.328C475.747 107.328 471.48 109.077 468.323 112.576C465.251 115.989 463.416 120.768 462.819 126.912H497.763C497.763 122.987 497.166 119.573 495.971 116.672C494.776 113.771 492.942 111.509 490.467 109.888C488.078 108.181 484.963 107.328 481.123 107.328ZM559.005 98.112C560.285 98.112 561.65 98.1973 563.101 98.368C564.637 98.4533 565.96 98.624 567.069 98.88L565.661 109.248C564.552 108.992 563.314 108.779 561.949 108.608C560.669 108.437 559.432 108.352 558.237 108.352C555.592 108.352 553.074 108.907 550.685 110.016C548.296 111.125 546.162 112.704 544.285 114.752C542.408 116.715 540.914 119.104 539.805 121.92C538.781 124.736 538.269 127.893 538.269 131.392V168H527.005V99.392H536.221L537.501 111.936H538.013C539.464 109.376 541.213 107.072 543.261 105.024C545.309 102.891 547.656 101.227 550.301 100.032C552.946 98.752 555.848 98.112 559.005 98.112ZM574.125 138.938V128.438H605.125V138.938H574.125ZM695.114 168H681.674L632.778 92.096H632.266C632.351 93.632 632.437 95.3387 632.522 97.216C632.693 99.0933 632.821 101.141 632.906 103.36C632.991 105.493 633.077 107.712 633.162 110.016C633.247 112.32 633.29 114.624 633.29 116.928V168H622.666V76.608H635.978L684.746 152.256H685.258C685.173 151.232 685.087 149.824 685.002 148.032C684.917 146.155 684.831 144.107 684.746 141.888C684.661 139.584 684.575 137.237 684.49 134.848C684.405 132.459 684.362 130.24 684.362 128.192V76.608H695.114V168ZM778.028 133.568C778.028 139.285 777.26 144.363 775.724 148.8C774.273 153.152 772.14 156.864 769.324 159.936C766.593 163.008 763.223 165.355 759.212 166.976C755.287 168.512 750.892 169.28 746.028 169.28C741.505 169.28 737.324 168.512 733.484 166.976C729.644 165.355 726.316 163.008 723.5 159.936C720.684 156.864 718.465 153.152 716.844 148.8C715.308 144.363 714.54 139.285 714.54 133.568C714.54 125.973 715.82 119.573 718.38 114.368C720.94 109.077 724.609 105.067 729.388 102.336C734.167 99.52 739.841 98.112 746.412 98.112C752.641 98.112 758.103 99.52 762.796 102.336C767.575 105.067 771.287 109.077 773.932 114.368C776.663 119.573 778.028 125.973 778.028 133.568ZM726.188 133.568C726.188 138.944 726.871 143.637 728.236 147.648C729.687 151.573 731.905 154.603 734.892 156.736C737.879 158.869 741.676 159.936 746.284 159.936C750.892 159.936 754.689 158.869 757.676 156.736C760.663 154.603 762.839 151.573 764.204 147.648C765.655 143.637 766.38 138.944 766.38 133.568C766.38 128.107 765.655 123.456 764.204 119.616C762.753 115.776 760.535 112.832 757.548 110.784C754.647 108.651 750.849 107.584 746.156 107.584C739.159 107.584 734.081 109.888 730.924 114.496C727.767 119.104 726.188 125.461 726.188 133.568ZM818.792 160.064C820.499 160.064 822.248 159.936 824.04 159.68C825.832 159.339 827.283 158.997 828.392 158.656V167.232C827.197 167.829 825.491 168.299 823.272 168.64C821.053 169.067 818.92 169.28 816.872 169.28C813.288 169.28 809.96 168.683 806.888 167.488C803.901 166.208 801.469 164.032 799.592 160.96C797.715 157.888 796.776 153.579 796.776 148.032V108.096H787.048V102.72L796.904 98.24L801.384 83.648H808.04V99.392H827.88V108.096H808.04V147.776C808.04 151.957 809.021 155.072 810.984 157.12C813.032 159.083 815.635 160.064 818.792 160.064ZM868.626 98.112C874.514 98.112 879.549 99.392 883.73 101.952C887.997 104.512 891.239 108.139 893.458 112.832C895.762 117.44 896.914 122.859 896.914 129.088V135.872H849.938C850.109 143.637 852.071 149.568 855.826 153.664C859.666 157.675 864.999 159.68 871.826 159.68C876.178 159.68 880.018 159.296 883.346 158.528C886.759 157.675 890.258 156.48 893.842 154.944V164.8C890.343 166.336 886.887 167.445 883.474 168.128C880.061 168.896 876.007 169.28 871.314 169.28C864.829 169.28 859.069 167.957 854.034 165.312C849.085 162.667 845.202 158.741 842.386 153.536C839.655 148.245 838.29 141.803 838.29 134.208C838.29 126.699 839.527 120.256 842.002 114.88C844.562 109.504 848.103 105.365 852.626 102.464C857.234 99.5627 862.567 98.112 868.626 98.112ZM868.498 107.328C863.122 107.328 858.855 109.077 855.698 112.576C852.626 115.989 850.791 120.768 850.194 126.912H885.138C885.138 122.987 884.541 119.573 883.346 116.672C882.151 113.771 880.317 111.509 877.842 109.888C875.453 108.181 872.338 107.328 868.498 107.328Z" fill="black"/>
<path d="M287.304 168V172H291.304V168H287.304ZM275.784 168H271.784V172H275.784V168ZM275.784 125.376H279.784V121.376H275.784V125.376ZM228.936 125.376V121.376H224.936V125.376H228.936ZM228.936 168V172H232.936V168H228.936ZM217.416 168H213.416V172H217.416V168ZM217.416 76.608V72.608H213.416V76.608H217.416ZM228.936 76.608H232.936V72.608H228.936V76.608ZM228.936 115.264H224.936V119.264H228.936V115.264ZM275.784 115.264V119.264H279.784V115.264H275.784ZM275.784 76.608V72.608H271.784V76.608H275.784ZM287.304 76.608H291.304V72.608H287.304V76.608ZM287.304 164H275.784V172H287.304V164ZM279.784 168V125.376H271.784V168H279.784ZM275.784 121.376H228.936V129.376H275.784V121.376ZM224.936 125.376V168H232.936V125.376H224.936ZM228.936 164H217.416V172H228.936V164ZM221.416 168V76.608H213.416V168H221.416ZM217.416 80.608H228.936V72.608H217.416V80.608ZM224.936 76.608V115.264H232.936V76.608H224.936ZM228.936 119.264H275.784V111.264H228.936V119.264ZM279.784 115.264V76.608H271.784V115.264H279.784ZM275.784 80.608H287.304V72.608H275.784V80.608ZM283.304 76.608V168H291.304V76.608H283.304ZM300.003 99.392V95.392H294.087L296.291 100.882L300.003 99.392ZM312.035 99.392L315.774 97.9701L314.793 95.392H312.035V99.392ZM326.883 138.432L330.634 137.043L330.628 137.026L330.622 137.01L326.883 138.432ZM329.187 145.088L325.377 146.307L325.399 146.375L325.423 146.443L329.187 145.088ZM331.235 151.36L327.395 152.48L327.402 152.502L327.408 152.525L331.235 151.36ZM332.643 157.12L328.708 157.836L329.305 161.12H332.643V157.12ZM333.155 157.12V161.12H336.309L337.045 158.053L333.155 157.12ZM335.587 148.8L339.391 150.036L339.396 150.023L339.4 150.009L335.587 148.8ZM339.043 138.304L335.278 136.954L335.267 136.983L335.258 137.011L339.043 138.304ZM352.995 99.392V95.392H350.18L349.23 98.0419L352.995 99.392ZM365.155 99.392L368.896 100.809L370.947 95.392H365.155V99.392ZM335.587 177.472L339.326 178.893L339.328 178.889L335.587 177.472ZM329.827 188.608L326.554 186.308L326.519 186.358L326.485 186.41L329.827 188.608ZM321.891 196.032L319.989 192.513L319.932 192.544L319.876 192.577L321.891 196.032ZM305.251 198.336L305.909 194.39L305.801 194.373L305.693 194.36L305.251 198.336ZM301.283 197.696H297.283V200.878L300.384 201.594L301.283 197.696ZM301.283 188.736L301.999 184.801L297.283 183.943V188.736H301.283ZM304.611 189.248L304.082 193.213L304.099 193.215L304.115 193.217L304.611 189.248ZM315.619 187.968L313.893 184.359L313.797 184.405L313.704 184.456L315.619 187.968ZM320.611 183.744L317.429 181.32L317.402 181.355L317.376 181.391L320.611 183.744ZM324.067 177.344L320.346 175.877L320.336 175.901L320.327 175.925L324.067 177.344ZM327.651 168.256L331.372 169.723L331.956 168.243L331.363 166.766L327.651 168.256ZM300.003 103.392H312.035V95.392H300.003V103.392ZM308.296 100.814L323.144 139.854L330.622 137.01L315.774 97.9701L308.296 100.814ZM323.132 139.821C323.966 142.074 324.715 144.236 325.377 146.307L332.997 143.869C332.294 141.673 331.506 139.398 330.634 137.043L323.132 139.821ZM325.423 146.443C326.165 148.504 326.822 150.516 327.395 152.48L335.075 150.24C334.453 148.108 333.745 145.939 332.951 143.733L325.423 146.443ZM327.408 152.525C327.964 154.351 328.396 156.121 328.708 157.836L336.578 156.404C336.208 154.365 335.701 152.295 335.062 150.195L327.408 152.525ZM332.643 161.12H333.155V153.12H332.643V161.12ZM337.045 158.053C337.522 156.066 338.297 153.404 339.391 150.036L331.783 147.564C330.659 151.023 329.812 153.908 329.265 156.187L337.045 158.053ZM339.4 150.009C340.5 146.538 341.643 143.068 342.828 139.597L335.258 137.011C334.054 140.538 332.892 144.064 331.774 147.591L339.4 150.009ZM342.808 139.654L356.76 100.742L349.23 98.0419L335.278 136.954L342.808 139.654ZM352.995 103.392H365.155V95.392H352.995V103.392ZM361.414 97.9754L331.846 176.055L339.328 178.889L368.896 100.809L361.414 97.9754ZM331.848 176.051C330.324 180.062 328.55 183.468 326.554 186.308L333.1 190.908C335.541 187.434 337.607 183.416 339.326 178.893L331.848 176.051ZM326.485 186.41C324.685 189.146 322.518 191.146 319.989 192.513L323.793 199.551C327.579 197.505 330.702 194.555 333.169 190.806L326.485 186.41ZM319.876 192.577C317.55 193.934 314.53 194.72 310.627 194.72V202.72C315.599 202.72 320.088 201.714 323.906 199.487L319.876 192.577ZM310.627 194.72C308.735 194.72 307.172 194.601 305.909 194.39L304.593 202.282C306.402 202.583 308.423 202.72 310.627 202.72V194.72ZM305.693 194.36C304.26 194.201 303.098 194.01 302.182 193.798L300.384 201.594C301.686 201.894 303.17 202.129 304.809 202.312L305.693 194.36ZM305.283 197.696V188.736H297.283V197.696H305.283ZM300.567 192.671C301.585 192.857 302.76 193.037 304.082 193.213L305.14 185.283C303.902 185.118 302.858 184.957 301.999 184.801L300.567 192.671ZM304.115 193.217C305.653 193.409 307.227 193.504 308.835 193.504V185.504C307.541 185.504 306.299 185.428 305.107 185.279L304.115 193.217ZM308.835 193.504C311.993 193.504 314.946 192.891 317.534 191.48L313.704 184.456C312.537 185.093 310.968 185.504 308.835 185.504V193.504ZM317.345 191.577C319.947 190.332 322.117 188.474 323.846 186.097L317.376 181.391C316.375 182.768 315.216 183.727 313.893 184.359L317.345 191.577ZM323.793 186.168C325.428 184.022 326.755 181.536 327.807 178.763L320.327 175.925C319.502 178.101 318.524 179.882 317.429 181.32L323.793 186.168ZM327.788 178.811L331.372 169.723L323.93 166.789L320.346 175.877L327.788 178.811ZM331.363 166.766L303.715 97.9017L296.291 100.882L323.939 169.746L331.363 166.766ZM428.997 106.944L425.979 109.569L425.989 109.581L426 109.593L428.997 106.944ZM433.221 153.28L429.566 151.655L429.56 151.669L429.554 151.683L433.221 153.28ZM423.365 165.312L425.504 168.692L425.512 168.687L425.521 168.681L423.365 165.312ZM399.173 167.872L397.873 171.655L397.873 171.655L399.173 167.872ZM392.133 164.288L389.6 167.384L389.676 167.446L389.755 167.505L392.133 164.288ZM387.269 159.296L390.451 156.872L389.25 155.296H387.269V159.296ZM386.501 159.296V155.296H382.003L382.528 159.763L386.501 159.296ZM387.013 164.8L383.025 165.107L383.025 165.107L387.013 164.8ZM387.269 198.72V202.72H391.269V198.72H387.269ZM376.005 198.72H372.005V202.72H376.005V198.72ZM376.005 99.392V95.392H372.005V99.392H376.005ZM385.221 99.392L389.168 98.7432L388.617 95.392H385.221V99.392ZM386.757 108.736L382.81 109.385L383.361 112.736H386.757V108.736ZM387.269 108.736V112.736H389.359L390.553 111.02L387.269 108.736ZM392.133 103.36L389.585 100.276L389.552 100.304L389.519 100.333L392.133 103.36ZM399.045 99.52L397.745 95.7372L397.726 95.7437L397.707 95.7503L399.045 99.52ZM395.461 110.272L397.534 113.693L397.572 113.67L397.609 113.647L395.461 110.272ZM387.269 131.392L383.27 131.329L383.269 131.36V131.392H387.269ZM389.061 147.904L385.234 149.069L385.234 149.069L389.061 147.904ZM395.077 156.864L392.724 160.099L392.747 160.116L392.77 160.132L395.077 156.864ZM417.093 156.48L414.514 153.423L414.49 153.443L414.466 153.464L417.093 156.48ZM423.109 147.136L419.322 145.847L419.314 145.871L419.306 145.896L423.109 147.136ZM420.549 114.624L417.174 116.771L417.188 116.793L417.202 116.815L420.549 114.624ZM408.645 102.112C416.043 102.112 421.686 104.633 425.979 109.569L432.015 104.319C426.068 97.4792 418.143 94.112 408.645 94.112V102.112ZM426 109.593C430.299 114.456 432.805 122.201 432.805 133.568H440.805C440.805 121.212 438.106 111.208 431.994 104.295L426 109.593ZM432.805 133.568C432.805 140.944 431.667 146.927 429.566 151.655L436.876 154.905C439.553 148.881 440.805 141.723 440.805 133.568H432.805ZM429.554 151.683C427.521 156.351 424.717 159.698 421.209 161.943L425.521 168.681C430.546 165.465 434.313 160.791 436.888 154.877L429.554 151.683ZM421.226 161.932C417.779 164.112 413.597 165.28 408.517 165.28V173.28C414.871 173.28 420.588 171.802 425.504 168.692L421.226 161.932ZM408.517 165.28C405.37 165.28 402.708 164.857 400.473 164.089L397.873 171.655C401.1 172.764 404.666 173.28 408.517 173.28V165.28ZM400.473 164.089C398.06 163.26 396.091 162.24 394.511 161.071L389.755 167.505C392.1 169.238 394.825 170.607 397.873 171.655L400.473 164.089ZM394.666 161.192C393.012 159.839 391.613 158.397 390.451 156.872L384.087 161.72C385.656 163.779 387.499 165.665 389.6 167.384L394.666 161.192ZM387.269 155.296H386.501V163.296H387.269V155.296ZM382.528 159.763C382.69 161.141 382.856 162.917 383.025 165.107L391.001 164.493C390.828 162.245 390.653 160.353 390.474 158.829L382.528 159.763ZM383.025 165.107C383.19 167.258 383.269 169.071 383.269 170.56H391.269C391.269 168.807 391.177 166.779 391.001 164.493L383.025 165.107ZM383.269 170.56V198.72H391.269V170.56H383.269ZM387.269 194.72H376.005V202.72H387.269V194.72ZM380.005 198.72V99.392H372.005V198.72H380.005ZM376.005 103.392H385.221V95.392H376.005V103.392ZM381.274 100.041L382.81 109.385L390.704 108.087L389.168 98.7432L381.274 100.041ZM386.757 112.736H387.269V104.736H386.757V112.736ZM390.553 111.02C391.72 109.342 393.114 107.798 394.747 106.387L389.519 100.333C387.397 102.165 385.549 104.204 383.985 106.452L390.553 111.02ZM394.681 106.444C396.248 105.149 398.133 104.088 400.383 103.29L397.707 95.7503C394.667 96.8292 391.943 98.3283 389.585 100.276L394.681 106.444ZM400.345 103.303C402.562 102.541 405.304 102.112 408.645 102.112V94.112C404.647 94.112 400.99 94.6218 397.745 95.7372L400.345 103.303ZM406.597 103.584C401.507 103.584 396.972 104.569 393.314 106.897L397.609 113.647C399.582 112.391 402.471 111.584 406.597 111.584V103.584ZM393.388 106.851C389.693 109.09 387.109 112.472 385.561 116.706L393.073 119.454C394.085 116.691 395.597 114.867 397.534 113.693L393.388 106.851ZM385.561 116.706C384.075 120.766 383.359 125.686 383.27 131.329L391.268 131.455C391.35 126.346 391.999 122.391 393.073 119.454L385.561 116.706ZM383.269 131.392V133.568H391.269V131.392H383.269ZM383.269 133.568C383.269 139.459 383.891 144.655 385.234 149.069L392.888 146.739C391.842 143.303 391.269 138.941 391.269 133.568H383.269ZM385.234 149.069C386.635 153.672 389.085 157.452 392.724 160.099L397.43 153.629C395.437 152.18 393.876 149.986 392.888 146.739L385.234 149.069ZM392.77 160.132C396.565 162.811 401.393 163.936 406.853 163.936V155.936C402.414 155.936 399.391 155.013 397.384 153.596L392.77 160.132ZM406.853 163.936C411.805 163.936 416.212 162.552 419.72 159.496L414.466 153.464C412.683 155.016 410.263 155.936 406.853 155.936V163.936ZM419.672 159.537C423.056 156.682 425.438 152.897 426.912 148.376L419.306 145.896C418.22 149.226 416.591 151.67 414.514 153.423L419.672 159.537ZM426.896 148.425C428.428 143.923 429.157 138.91 429.157 133.44H421.157C421.157 138.21 420.52 142.328 419.322 145.847L426.896 148.425ZM429.157 133.44C429.157 125.11 427.533 117.99 423.896 112.433L417.202 116.815C419.709 120.645 421.157 126.069 421.157 133.44H429.157ZM423.924 112.476C420.093 106.457 414.061 103.584 406.597 103.584V111.584C411.762 111.584 415.032 113.405 417.174 116.771L423.924 112.476ZM496.355 101.952L494.266 105.363L494.282 105.373L494.297 105.382L496.355 101.952ZM506.083 112.832L502.467 114.542L502.486 114.581L502.505 114.621L506.083 112.832ZM509.539 135.872V139.872H513.539V135.872H509.539ZM462.563 135.872V131.872H458.474L458.564 135.96L462.563 135.872ZM468.451 153.664L465.502 156.367L465.532 156.399L465.562 156.43L468.451 153.664ZM495.971 158.528L496.87 162.426L496.906 162.417L496.941 162.409L495.971 158.528ZM506.467 154.944H510.467V148.878L504.891 151.267L506.467 154.944ZM506.467 164.8L508.075 168.463L510.467 167.412V164.8H506.467ZM496.099 168.128L495.315 164.206L495.268 164.215L495.221 164.226L496.099 168.128ZM466.659 165.312L464.773 168.84L464.786 168.846L464.798 168.853L466.659 165.312ZM455.011 153.536L451.457 155.371L451.474 155.405L451.493 155.439L455.011 153.536ZM454.627 114.88L451.016 113.16L451.004 113.184L450.993 113.207L454.627 114.88ZM465.251 102.464L463.12 99.0791L463.105 99.0881L463.091 99.0972L465.251 102.464ZM468.323 112.576L465.353 109.896L465.35 109.9L468.323 112.576ZM462.819 126.912L458.838 126.525L458.411 130.912H462.819V126.912ZM497.763 126.912V130.912H501.763V126.912H497.763ZM495.971 116.672L492.272 118.195L492.272 118.195L495.971 116.672ZM490.467 109.888L488.142 113.143L488.208 113.19L488.275 113.234L490.467 109.888ZM481.251 102.112C486.551 102.112 490.83 103.259 494.266 105.363L498.444 98.5406C493.518 95.5247 487.727 94.112 481.251 94.112V102.112ZM494.297 105.382C497.855 107.517 500.571 110.53 502.467 114.542L509.699 111.122C507.158 105.747 503.388 101.507 498.413 98.522L494.297 105.382ZM502.505 114.621C504.479 118.569 505.539 123.351 505.539 129.088H513.539C513.539 122.366 512.295 116.311 509.661 111.043L502.505 114.621ZM505.539 129.088V135.872H513.539V129.088H505.539ZM509.539 131.872H462.563V139.872H509.539V131.872ZM458.564 135.96C458.748 144.311 460.872 151.315 465.502 156.367L471.4 150.961C468.521 147.821 466.72 142.964 466.562 135.784L458.564 135.96ZM465.562 156.43C470.323 161.403 476.801 163.68 484.451 163.68V155.68C478.448 155.68 474.259 153.946 471.34 150.898L465.562 156.43ZM484.451 163.68C489.028 163.68 493.18 163.277 496.87 162.426L495.072 154.63C492.106 155.315 488.578 155.68 484.451 155.68V163.68ZM496.941 162.409C500.582 161.498 504.283 160.232 508.043 158.621L504.891 151.267C501.483 152.728 498.186 153.851 495.001 154.647L496.941 162.409ZM502.467 154.944V164.8H510.467V154.944H502.467ZM504.859 161.137C501.599 162.569 498.419 163.585 495.315 164.206L496.883 172.05C500.606 171.306 504.337 170.103 508.075 168.463L504.859 161.137ZM495.221 164.226C492.174 164.911 488.43 165.28 483.939 165.28V173.28C488.834 173.28 493.197 172.881 496.977 172.03L495.221 164.226ZM483.939 165.28C478.01 165.28 472.904 164.075 468.52 161.771L464.798 168.853C470.483 171.84 476.897 173.28 483.939 173.28V165.28ZM468.545 161.784C464.326 159.529 460.993 156.188 458.529 151.633L451.493 155.439C454.661 161.295 459.094 165.804 464.773 168.84L468.545 161.784ZM458.565 151.701C456.197 147.113 454.915 141.335 454.915 134.208H446.915C446.915 142.27 448.364 149.378 451.457 155.371L458.565 151.701ZM454.915 134.208C454.915 127.126 456.083 121.283 458.261 116.553L450.993 113.207C448.222 119.229 446.915 126.271 446.915 134.208H454.915ZM458.238 116.6C460.513 111.822 463.583 108.287 467.411 105.831L463.091 99.0972C457.874 102.444 453.861 107.186 451.016 113.16L458.238 116.6ZM467.382 105.849C471.282 103.394 475.859 102.112 481.251 102.112V94.112C474.526 94.112 468.436 95.7316 463.12 99.0791L467.382 105.849ZM481.123 103.328C474.791 103.328 469.38 105.435 465.353 109.896L471.293 115.256C473.581 112.72 476.703 111.328 481.123 111.328V103.328ZM465.35 109.9C461.538 114.136 459.49 119.819 458.838 126.525L466.8 127.299C467.343 121.717 468.964 117.843 471.296 115.252L465.35 109.9ZM462.819 130.912H497.763V122.912H462.819V130.912ZM501.763 126.912C501.763 122.591 501.106 118.638 499.67 115.149L492.272 118.195C493.225 120.509 493.763 123.383 493.763 126.912H501.763ZM499.67 115.149C498.188 111.55 495.85 108.633 492.659 106.542L488.275 113.234C490.033 114.386 491.365 115.992 492.272 118.195L499.67 115.149ZM492.792 106.633C489.543 104.312 485.542 103.328 481.123 103.328V111.328C484.384 111.328 486.613 112.051 488.142 113.143L492.792 106.633ZM563.101 98.368L562.634 102.341L562.756 102.355L562.879 102.362L563.101 98.368ZM567.069 98.88L571.033 99.4183L571.524 95.8029L567.968 94.9824L567.069 98.88ZM565.661 109.248L564.762 113.146L569.035 114.132L569.625 109.786L565.661 109.248ZM561.949 108.608L561.42 112.573L561.437 112.575L561.453 112.577L561.949 108.608ZM550.685 110.016L552.369 113.644L552.369 113.644L550.685 110.016ZM544.285 114.752L547.176 117.517L547.205 117.486L547.234 117.455L544.285 114.752ZM539.805 121.92L536.083 120.454L536.064 120.503L536.046 120.553L539.805 121.92ZM538.269 168V172H542.269V168H538.269ZM527.005 168H523.005V172H527.005V168ZM527.005 99.392V95.392H523.005V99.392H527.005ZM536.221 99.392L540.2 98.9859L539.834 95.392H536.221V99.392ZM537.501 111.936L533.522 112.342L533.888 115.936H537.501V111.936ZM538.013 111.936V115.936H540.344L541.493 113.908L538.013 111.936ZM543.261 105.024L546.089 107.852L546.118 107.824L546.147 107.794L543.261 105.024ZM550.301 100.032L551.947 103.677L551.996 103.656L552.043 103.633L550.301 100.032ZM559.005 102.112C560.109 102.112 561.317 102.186 562.634 102.341L563.568 94.3954C561.984 94.209 560.461 94.112 559.005 94.112V102.112ZM562.879 102.362C564.261 102.439 565.345 102.587 566.17 102.778L567.968 94.9824C566.575 94.6608 565.013 94.4681 563.323 94.3742L562.879 102.362ZM563.105 98.3417L561.697 108.71L569.625 109.786L571.033 99.4183L563.105 98.3417ZM566.56 105.35C565.294 105.058 563.919 104.823 562.445 104.639L561.453 112.577C562.709 112.734 563.809 112.926 564.762 113.146L566.56 105.35ZM562.478 104.643C561.036 104.451 559.622 104.352 558.237 104.352V112.352C559.241 112.352 560.302 112.424 561.42 112.573L562.478 104.643ZM558.237 104.352C555.012 104.352 551.92 105.033 549.001 106.388L552.369 113.644C554.229 112.781 556.171 112.352 558.237 112.352V104.352ZM549.001 106.388C546.107 107.731 543.55 109.634 541.336 112.049L547.234 117.455C548.774 115.774 550.484 114.519 552.369 113.644L549.001 106.388ZM541.394 111.987C539.12 114.365 537.361 117.21 536.083 120.454L543.527 123.386C544.468 120.998 545.696 119.064 547.176 117.517L541.394 111.987ZM536.046 120.553C534.838 123.874 534.269 127.504 534.269 131.392H542.269C542.269 128.283 542.724 125.598 543.564 123.287L536.046 120.553ZM534.269 131.392V168H542.269V131.392H534.269ZM538.269 164H527.005V172H538.269V164ZM531.005 168V99.392H523.005V168H531.005ZM527.005 103.392H536.221V95.392H527.005V103.392ZM532.242 99.7981L533.522 112.342L541.48 111.53L540.2 98.9859L532.242 99.7981ZM537.501 115.936H538.013V107.936H537.501V115.936ZM541.493 113.908C542.769 111.657 544.3 109.642 546.089 107.852L540.433 102.196C538.126 104.502 536.158 107.095 534.533 109.964L541.493 113.908ZM546.147 107.794C547.848 106.022 549.776 104.658 551.947 103.677L548.655 96.3865C545.535 97.7953 542.77 99.7595 540.375 102.254L546.147 107.794ZM552.043 103.633C554.106 102.635 556.405 102.112 559.005 102.112V94.112C555.29 94.112 551.787 94.8693 548.559 96.4314L552.043 103.633ZM574.125 138.938H570.125V142.938H574.125V138.938ZM574.125 128.438V124.438H570.125V128.438H574.125ZM605.125 128.438H609.125V124.438H605.125V128.438ZM605.125 138.938V142.938H609.125V138.938H605.125ZM578.125 138.938V128.438H570.125V138.938H578.125ZM574.125 132.438H605.125V124.438H574.125V132.438ZM601.125 128.438V138.938H609.125V128.438H601.125ZM605.125 134.938H574.125V142.938H605.125V134.938ZM695.114 168V172H699.114V168H695.114ZM681.674 168L678.311 170.166L679.493 172H681.674V168ZM632.778 92.096L636.141 89.9298L634.959 88.096H632.778V92.096ZM632.266 92.096V88.096H628.038L628.272 92.3179L632.266 92.096ZM632.522 97.216L628.526 97.3976L628.53 97.488L628.538 97.5781L632.522 97.216ZM632.906 103.36L628.909 103.514L628.909 103.52L632.906 103.36ZM633.162 110.016L629.165 110.164L629.165 110.164L633.162 110.016ZM633.29 168V172H637.29V168H633.29ZM622.666 168H618.666V172H622.666V168ZM622.666 76.608V72.608H618.666V76.608H622.666ZM635.978 76.608L639.34 74.4407L638.158 72.608H635.978V76.608ZM684.746 152.256L681.384 154.423L682.566 156.256H684.746V152.256ZM685.258 152.256V156.256H689.605L689.244 151.924L685.258 152.256ZM685.002 148.032L681.006 148.214L681.007 148.222L685.002 148.032ZM684.746 141.888L680.749 142.036L680.749 142.042L684.746 141.888ZM684.362 76.608V72.608H680.362V76.608H684.362ZM695.114 76.608H699.114V72.608H695.114V76.608ZM695.114 164H681.674V172H695.114V164ZM685.037 165.834L636.141 89.9298L629.415 94.2622L678.311 170.166L685.037 165.834ZM632.778 88.096H632.266V96.096H632.778V88.096ZM628.272 92.3179C628.357 93.8379 628.441 95.5309 628.526 97.3976L636.518 97.0344C636.432 95.1464 636.346 93.4261 636.26 91.8741L628.272 92.3179ZM628.538 97.5781C628.702 99.3753 628.826 101.353 628.909 103.514L636.903 103.206C636.815 100.93 636.684 98.8114 636.506 96.8539L628.538 97.5781ZM628.909 103.52C628.994 105.649 629.08 107.864 629.165 110.164L637.159 109.868C637.074 107.56 636.988 105.338 636.903 103.2L628.909 103.52ZM629.165 110.164C629.248 112.419 629.29 114.673 629.29 116.928H637.29C637.29 114.575 637.246 112.221 637.159 109.868L629.165 110.164ZM629.29 116.928V168H637.29V116.928H629.29ZM633.29 164H622.666V172H633.29V164ZM626.666 168V76.608H618.666V168H626.666ZM622.666 80.608H635.978V72.608H622.666V80.608ZM632.616 78.7753L681.384 154.423L688.108 150.089L639.34 74.4407L632.616 78.7753ZM684.746 156.256H685.258V148.256H684.746V156.256ZM689.244 151.924C689.165 150.969 689.082 149.616 688.997 147.842L681.007 148.222C681.093 150.032 681.181 151.495 681.272 152.588L689.244 151.924ZM688.998 147.85C688.913 145.984 688.828 143.945 688.743 141.734L680.749 142.042C680.835 144.268 680.92 146.326 681.006 148.214L688.998 147.85ZM688.743 141.74C688.658 139.438 688.573 137.093 688.487 134.705L680.493 134.991C680.578 137.382 680.663 139.73 680.749 142.036L688.743 141.74ZM688.487 134.705C688.404 132.356 688.362 130.185 688.362 128.192H680.362C680.362 130.295 680.406 132.561 680.493 134.991L688.487 134.705ZM688.362 128.192V76.608H680.362V128.192H688.362ZM684.362 80.608H695.114V72.608H684.362V80.608ZM691.114 76.608V168H699.114V76.608H691.114ZM775.724 148.8L771.944 147.492L771.937 147.513L771.929 147.535L775.724 148.8ZM769.324 159.936L766.375 157.233L766.355 157.256L766.334 157.279L769.324 159.936ZM759.212 166.976L760.67 170.701L760.69 170.693L760.711 170.684L759.212 166.976ZM733.484 166.976L731.928 170.661L731.963 170.676L731.998 170.69L733.484 166.976ZM723.5 159.936L720.551 162.639L720.551 162.639L723.5 159.936ZM716.844 148.8L713.064 150.108L713.079 150.153L713.096 150.196L716.844 148.8ZM718.38 114.368L721.969 116.133L721.975 116.122L721.981 116.11L718.38 114.368ZM729.388 102.336L731.373 105.809L731.396 105.796L731.419 105.782L729.388 102.336ZM762.796 102.336L760.738 105.766L760.775 105.788L760.811 105.809L762.796 102.336ZM773.932 114.368L770.354 116.157L770.372 116.192L770.39 116.226L773.932 114.368ZM728.236 147.648L724.449 148.937L724.466 148.986L724.484 149.035L728.236 147.648ZM734.892 156.736L737.217 153.481L737.217 153.481L734.892 156.736ZM757.676 156.736L755.351 153.481L755.351 153.481L757.676 156.736ZM764.204 147.648L760.442 146.287L760.434 146.311L760.426 146.334L764.204 147.648ZM764.204 119.616L767.946 118.202L767.946 118.202L764.204 119.616ZM757.548 110.784L755.178 114.007L755.232 114.046L755.286 114.083L757.548 110.784ZM730.924 114.496L734.224 116.757L734.224 116.757L730.924 114.496ZM774.028 133.568C774.028 138.934 773.307 143.555 771.944 147.492L779.504 150.108C781.213 145.17 782.028 139.637 782.028 133.568H774.028ZM771.929 147.535C770.638 151.408 768.775 154.616 766.375 157.233L772.273 162.639C775.505 159.112 777.908 154.896 779.519 150.065L771.929 147.535ZM766.334 157.279C764.034 159.866 761.183 161.865 757.713 163.268L760.711 170.684C765.262 168.845 769.152 166.15 772.314 162.593L766.334 157.279ZM757.754 163.251C754.359 164.58 750.469 165.28 746.028 165.28V173.28C751.315 173.28 756.214 172.444 760.67 170.701L757.754 163.251ZM746.028 165.28C741.966 165.28 738.295 164.592 734.97 163.262L731.998 170.69C736.353 172.432 741.044 173.28 746.028 173.28V165.28ZM735.04 163.291C731.729 161.893 728.876 159.881 726.449 157.233L720.551 162.639C723.756 166.135 727.559 168.816 731.928 170.661L735.04 163.291ZM726.449 157.233C724.019 154.582 722.054 151.328 720.592 147.404L713.096 150.196C714.876 154.976 717.349 159.146 720.551 162.639L726.449 157.233ZM720.624 147.492C719.261 143.555 718.54 138.934 718.54 133.568H710.54C710.54 139.637 711.355 145.17 713.064 150.108L720.624 147.492ZM718.54 133.568C718.54 126.404 719.75 120.647 721.969 116.133L714.791 112.603C711.89 118.5 710.54 125.543 710.54 133.568H718.54ZM721.981 116.11C724.214 111.494 727.343 108.111 731.373 105.809L727.403 98.863C721.875 102.022 717.666 106.66 714.779 112.626L721.981 116.11ZM731.419 105.782C735.477 103.391 740.423 102.112 746.412 102.112V94.112C739.26 94.112 732.856 95.6493 727.357 98.8898L731.419 105.782ZM746.412 102.112C752.019 102.112 756.749 103.372 760.738 105.766L764.854 98.906C759.457 95.6677 753.264 94.112 746.412 94.112V102.112ZM760.811 105.809C764.853 108.118 768.034 111.517 770.354 116.157L777.51 112.579C774.539 106.637 770.297 102.015 764.781 98.863L760.811 105.809ZM770.39 116.226C772.745 120.715 774.028 126.437 774.028 133.568H782.028C782.028 125.509 780.581 118.431 777.474 112.51L770.39 116.226ZM722.188 133.568C722.188 139.27 722.911 144.417 724.449 148.937L732.023 146.359C730.831 142.858 730.188 138.618 730.188 133.568H722.188ZM724.484 149.035C726.172 153.603 728.84 157.329 732.567 159.991L737.217 153.481C734.971 151.877 733.201 149.544 731.988 146.261L724.484 149.035ZM732.567 159.991C736.388 162.72 741.057 163.936 746.284 163.936V155.936C742.295 155.936 739.369 155.018 737.217 153.481L732.567 159.991ZM746.284 163.936C751.511 163.936 756.18 162.72 760.001 159.991L755.351 153.481C753.199 155.018 750.273 155.936 746.284 155.936V163.936ZM760.001 159.991C763.748 157.314 766.382 153.562 767.982 148.962L760.426 146.334C759.295 149.585 757.577 151.891 755.351 153.481L760.001 159.991ZM767.966 149.009C769.609 144.465 770.38 139.292 770.38 133.568H762.38C762.38 138.596 761.7 142.81 760.442 146.287L767.966 149.009ZM770.38 133.568C770.38 127.774 769.613 122.616 767.946 118.202L760.462 121.03C761.696 124.296 762.38 128.439 762.38 133.568H770.38ZM767.946 118.202C766.246 113.703 763.559 110.056 759.81 107.485L755.286 114.083C757.51 115.608 759.26 117.849 760.462 121.03L767.946 118.202ZM759.918 107.561C756.147 104.789 751.444 103.584 746.156 103.584V111.584C750.255 111.584 753.146 112.512 755.178 114.007L759.918 107.561ZM746.156 103.584C738.215 103.584 731.717 106.262 727.624 112.235L734.224 116.757C736.445 113.514 740.102 111.584 746.156 111.584V103.584ZM727.624 112.235C723.848 117.747 722.188 125.001 722.188 133.568H730.188C730.188 125.921 731.686 120.461 734.224 116.757L727.624 112.235ZM824.04 159.68L824.606 163.64L824.697 163.627L824.788 163.609L824.04 159.68ZM828.392 158.656H832.392V153.24L827.216 154.833L828.392 158.656ZM828.392 167.232L830.181 170.81L832.392 169.704V167.232H828.392ZM823.272 168.64L822.664 164.687L822.59 164.698L822.517 164.712L823.272 168.64ZM806.888 167.488L805.312 171.165L805.375 171.191L805.438 171.216L806.888 167.488ZM799.592 160.96L796.179 163.046L799.592 160.96ZM796.776 108.096H800.776V104.096H796.776V108.096ZM787.048 108.096H783.048V112.096H787.048V108.096ZM787.048 102.72L785.393 99.0785L783.048 100.144V102.72H787.048ZM796.904 98.24L798.559 101.881L800.199 101.136L800.728 99.414L796.904 98.24ZM801.384 83.648V79.648H798.428L797.56 82.474L801.384 83.648ZM808.04 83.648H812.04V79.648H808.04V83.648ZM808.04 99.392H804.04V103.392H808.04V99.392ZM827.88 99.392H831.88V95.392H827.88V99.392ZM827.88 108.096V112.096H831.88V108.096H827.88ZM808.04 108.096V104.096H804.04V108.096H808.04ZM810.984 157.12L808.096 159.888L808.155 159.949L808.216 160.008L810.984 157.12ZM818.792 164.064C820.699 164.064 822.638 163.921 824.606 163.64L823.474 155.72C821.858 155.951 820.298 156.064 818.792 156.064V164.064ZM824.788 163.609C826.653 163.254 828.263 162.881 829.568 162.479L827.216 154.833C826.303 155.114 825.011 155.423 823.292 155.751L824.788 163.609ZM824.392 158.656V167.232H832.392V158.656H824.392ZM826.603 163.654C825.948 163.982 824.711 164.372 822.664 164.687L823.88 172.593C826.27 172.226 828.447 171.677 830.181 170.81L826.603 163.654ZM822.517 164.712C820.522 165.096 818.642 165.28 816.872 165.28V173.28C819.198 173.28 821.585 173.038 824.027 172.568L822.517 164.712ZM816.872 165.28C813.74 165.28 810.909 164.76 808.338 163.76L805.438 171.216C809.011 172.606 812.836 173.28 816.872 173.28V165.28ZM808.464 163.811C806.322 162.893 804.499 161.318 803.005 158.874L796.179 163.046C798.44 166.746 801.481 169.523 805.312 171.165L808.464 163.811ZM803.005 158.874C801.666 156.683 800.776 153.209 800.776 148.032H792.776C792.776 153.948 793.763 159.093 796.179 163.046L803.005 158.874ZM800.776 148.032V108.096H792.776V148.032H800.776ZM796.776 104.096H787.048V112.096H796.776V104.096ZM791.048 108.096V102.72H783.048V108.096H791.048ZM788.703 106.361L798.559 101.881L795.249 94.5985L785.393 99.0785L788.703 106.361ZM800.728 99.414L805.208 84.822L797.56 82.474L793.08 97.066L800.728 99.414ZM801.384 87.648H808.04V79.648H801.384V87.648ZM804.04 83.648V99.392H812.04V83.648H804.04ZM808.04 103.392H827.88V95.392H808.04V103.392ZM823.88 99.392V108.096H831.88V99.392H823.88ZM827.88 104.096H808.04V112.096H827.88V104.096ZM804.04 108.096V147.776H812.04V108.096H804.04ZM804.04 147.776C804.04 152.505 805.144 156.807 808.096 159.888L813.872 154.352C812.899 153.337 812.04 151.409 812.04 147.776H804.04ZM808.216 160.008C811.096 162.767 814.73 164.064 818.792 164.064V156.064C816.539 156.064 814.968 155.398 813.752 154.232L808.216 160.008ZM883.73 101.952L881.641 105.363L881.657 105.373L881.672 105.382L883.73 101.952ZM893.458 112.832L889.842 114.542L889.861 114.581L889.88 114.621L893.458 112.832ZM896.914 135.872V139.872H900.914V135.872H896.914ZM849.938 135.872V131.872H845.849L845.939 135.96L849.938 135.872ZM855.826 153.664L852.877 156.367L852.907 156.399L852.937 156.43L855.826 153.664ZM883.346 158.528L884.245 162.426L884.281 162.417L884.316 162.409L883.346 158.528ZM893.842 154.944H897.842V148.878L892.266 151.267L893.842 154.944ZM893.842 164.8L895.45 168.463L897.842 167.412V164.8H893.842ZM883.474 168.128L882.69 164.206L882.643 164.215L882.596 164.226L883.474 168.128ZM854.034 165.312L852.148 168.84L852.161 168.846L852.173 168.853L854.034 165.312ZM842.386 153.536L838.832 155.371L838.849 155.405L838.868 155.439L842.386 153.536ZM842.002 114.88L838.391 113.16L838.379 113.184L838.368 113.207L842.002 114.88ZM852.626 102.464L850.495 99.0791L850.48 99.0881L850.466 99.0972L852.626 102.464ZM855.698 112.576L852.728 109.896L852.725 109.9L855.698 112.576ZM850.194 126.912L846.213 126.525L845.786 130.912H850.194V126.912ZM885.138 126.912V130.912H889.138V126.912H885.138ZM883.346 116.672L879.647 118.195L879.647 118.195L883.346 116.672ZM877.842 109.888L875.517 113.143L875.583 113.19L875.65 113.234L877.842 109.888ZM868.626 102.112C873.926 102.112 878.205 103.259 881.641 105.363L885.819 98.5406C880.893 95.5247 875.102 94.112 868.626 94.112V102.112ZM881.672 105.382C885.23 107.517 887.946 110.53 889.842 114.542L897.074 111.122C894.533 105.747 890.763 101.507 885.788 98.522L881.672 105.382ZM889.88 114.621C891.854 118.569 892.914 123.351 892.914 129.088H900.914C900.914 122.366 899.67 116.311 897.036 111.043L889.88 114.621ZM892.914 129.088V135.872H900.914V129.088H892.914ZM896.914 131.872H849.938V139.872H896.914V131.872ZM845.939 135.96C846.123 144.311 848.247 151.315 852.877 156.367L858.775 150.961C855.896 147.821 854.095 142.964 853.937 135.784L845.939 135.96ZM852.937 156.43C857.698 161.403 864.176 163.68 871.826 163.68V155.68C865.823 155.68 861.634 153.946 858.715 150.898L852.937 156.43ZM871.826 163.68C876.403 163.68 880.555 163.277 884.245 162.426L882.447 154.63C879.481 155.315 875.953 155.68 871.826 155.68V163.68ZM884.316 162.409C887.957 161.498 891.658 160.232 895.418 158.621L892.266 151.267C888.858 152.728 885.561 153.851 882.376 154.647L884.316 162.409ZM889.842 154.944V164.8H897.842V154.944H889.842ZM892.234 161.137C888.974 162.569 885.794 163.585 882.69 164.206L884.258 172.05C887.981 171.306 891.712 170.103 895.45 168.463L892.234 161.137ZM882.596 164.226C879.549 164.911 875.805 165.28 871.314 165.28V173.28C876.209 173.28 880.572 172.881 884.352 172.03L882.596 164.226ZM871.314 165.28C865.385 165.28 860.279 164.075 855.895 161.771L852.173 168.853C857.858 171.84 864.272 173.28 871.314 173.28V165.28ZM855.92 161.784C851.701 159.529 848.368 156.188 845.904 151.633L838.868 155.439C842.036 161.295 846.469 165.804 852.148 168.84L855.92 161.784ZM845.94 151.701C843.572 147.113 842.29 141.335 842.29 134.208H834.29C834.29 142.27 835.739 149.378 838.832 155.371L845.94 151.701ZM842.29 134.208C842.29 127.126 843.458 121.283 845.636 116.553L838.368 113.207C835.597 119.229 834.29 126.271 834.29 134.208H842.29ZM845.613 116.6C847.888 111.822 850.958 108.287 854.786 105.831L850.466 99.0972C845.249 102.444 841.236 107.186 838.391 113.16L845.613 116.6ZM854.757 105.849C858.657 103.394 863.234 102.112 868.626 102.112V94.112C861.901 94.112 855.811 95.7316 850.495 99.0791L854.757 105.849ZM868.498 103.328C862.166 103.328 856.755 105.435 852.728 109.896L858.668 115.256C860.956 112.72 864.078 111.328 868.498 111.328V103.328ZM852.725 109.9C848.913 114.136 846.865 119.819 846.213 126.525L854.175 127.299C854.718 121.717 856.339 117.843 858.671 115.252L852.725 109.9ZM850.194 130.912H885.138V122.912H850.194V130.912ZM889.138 126.912C889.138 122.591 888.481 118.638 887.045 115.149L879.647 118.195C880.6 120.509 881.138 123.383 881.138 126.912H889.138ZM887.045 115.149C885.563 111.55 883.225 108.633 880.034 106.542L875.65 113.234C877.408 114.386 878.74 115.992 879.647 118.195L887.045 115.149ZM880.167 106.633C876.918 104.312 872.917 103.328 868.498 103.328V111.328C871.759 111.328 873.988 112.051 875.517 113.143L880.167 106.633Z" fill="black"/>
</svg>
